<svg width="32" height="32" viewBox="0 0 32 32" fill="none" xmlns="http://www.w3.org/2000/svg">
<path fill-rule="evenodd" clip-rule="evenodd" d="M26.0124 3.52606C26.353 3.42755 26.7137 3.42191 27.0572 3.50978C27.4027 3.59814 27.718 3.7778 27.9701 4.02991C28.2222 4.28202 28.4018 4.59732 28.4902 4.94274C28.5781 5.2863 28.5724 5.64709 28.4739 5.98768L21.9146 29.2762C21.9142 29.2776 21.9138 29.279 21.9134 29.2805C21.8045 29.6754 21.5769 30.0274 21.2614 30.2889C20.9447 30.5512 20.5548 30.7096 20.1449 30.7424C19.735 30.7752 19.3249 30.6808 18.9705 30.4721C18.6187 30.265 18.3388 29.9552 18.1683 29.5844L13.109 18.891L2.41558 13.8316C2.04481 13.6611 1.735 13.3812 1.52785 13.0295C1.31917 12.6751 1.2248 12.265 1.25759 11.8551C1.29039 11.4452 1.44875 11.0553 1.71112 10.7386C1.97253 10.4231 2.32452 10.1955 2.71944 10.0866C2.72088 10.0862 2.72233 10.0858 2.72377 10.0854L26.0124 3.52606ZM26.5466 5.45343L3.25126 12.0146L3.26518 12.0211L13.6509 16.9349L18.8054 11.7804C19.1959 11.3899 19.8291 11.3899 20.2196 11.7804C20.6101 12.1709 20.6101 12.8041 20.2196 13.1946L15.0651 18.3491L19.9789 28.7348L19.9854 28.7488L19.9874 28.7414L26.5466 5.45343Z" fill="#000022"/>
</svg>
